<svg xmlns="http://www.w3.org/2000/svg" version="1.1" xmlns:xlink="http://www.w3.org/1999/xlink" xmlns:svgjs="http://svgjs.dev/svgjs" width="2000" height="1500" viewBox="0 0 2000 1500"><rect width="2000" height="1500" fill="#ffffff"></rect><g transform="matrix(0.75,0,0,0.75,249.09090909090912,533.3684110566185)"><svg viewBox="0 0 396 115" data-background-color="#ffffff" preserveAspectRatio="xMidYMid meet" height="580" width="2000" xmlns="http://www.w3.org/2000/svg" xmlns:xlink="http://www.w3.org/1999/xlink"><g id="tight-bounds" transform="matrix(1,0,0,1,0.2400000000000091,-0.2295799345083367)"><svg viewBox="0 0 395.52 115.45909002022192" height="115.45909002022192" width="395.52"><g><svg viewBox="0 0 607.7473135921372 177.41189267188162" height="115.45909002022192" width="395.52"><g transform="matrix(1,0,0,1,212.2273135921372,51.837076861433054)"><svg viewBox="0 0 395.52 73.73773894901551" height="73.73773894901551" width="395.52"><g id="textblocktransform"><svg viewBox="0 0 395.52 73.73773894901551" height="73.73773894901551" width="395.52" id="textblock"><g><svg viewBox="0 0 395.52 73.73773894901551" height="73.73773894901551" width="395.52"><g transform="matrix(1,0,0,1,0,0)"><svg width="395.52" viewBox="3.7 -40.45 219.09428526850002 40.85" height="73.73773894901551" data-palette-color="#131312"><path d="M34.65-39.95L34.65-39.95Q36.25-39.95 38.15-39.2L38.15-39.2Q39.9-38.5 39.9-36.55L39.9-36.55 39.9-2.1Q39.9 0.3 36.95 0.3L36.95 0.3Q34 0.3 34-2.1L34-2.1 34-27.8 32.55-27.95 30.55-21.45 24.55-1.45Q24 0.3 21.85 0.25L21.85 0.25Q20.9 0.2 20.2-0.25 19.5-0.7 19.25-1.55L19.25-1.55 15.65-13.2Q14.55-16.65 13.45-20.23 12.35-23.8 11.05-28.15L11.05-28.15 9.6-27.95 9.6-2.1Q9.6 0.3 6.65 0.3L6.65 0.3Q3.7 0.3 3.7-2.1L3.7-2.1 3.7-36.55Q3.7-38.45 5.45-39.2L5.45-39.2Q7.3-39.95 9-39.9L9-39.9Q9.75-39.9 10.55-39.7 11.35-39.5 12.05-39.13 12.75-38.75 13.3-38.18 13.85-37.6 14.15-36.85L14.15-36.85 22-10.1Q22.85-13.05 23.8-16.5 24.75-19.95 25.75-23.5 26.75-27.05 27.73-30.53 28.7-34 29.55-37L29.55-37Q29.85-37.7 30.4-38.25 30.95-38.8 31.65-39.18 32.35-39.55 33.13-39.75 33.9-39.95 34.65-39.95ZM52.15-27.9L52.15-2.1Q52.15 0.3 49.4 0.3L49.4 0.3Q46.6 0.3 46.6-2.1L46.6-2.1 46.6-27.9Q46.6-30.3 49.4-30.3L49.4-30.3Q52.15-30.3 52.15-27.9L52.15-27.9ZM53.2-36.6L53.2-36.6Q53.2-35 52.1-33.9 51-32.8 49.4-32.8L49.4-32.8Q47.8-32.8 46.67-33.9 45.55-35 45.55-36.6L45.55-36.6Q45.55-38.25 46.67-39.35 47.8-40.45 49.4-40.45L49.4-40.45Q51-40.45 52.1-39.35 53.2-38.25 53.2-36.6ZM64.6-21.75L64.6-2.1Q64.6 0.3 61.85 0.3L61.85 0.3Q59.1 0.3 59.1-2.1L59.1-2.1 59.1-22.2Q59.1-24.25 59.75-25.75 60.4-27.25 61.8-28.2L61.8-28.2Q64.45-30.1 67.1-30.1L67.1-30.1 75.15-30.1Q77.7-30.1 80.45-28.2L80.45-28.2Q83.15-26.3 83.15-22.2L83.15-22.2 83.15-2.1Q83.15 0.3 80.4 0.3L80.4 0.3Q77.65 0.3 77.65-2.1L77.65-2.1 77.65-21.75Q77.65-23.05 76.85-24.25L76.85-24.25 76.9-24.2Q76.25-25.4 74.25-25.4L74.25-25.4 68-25.4Q65.95-25.4 65.3-24.2L65.3-24.2Q64.6-23.15 64.6-21.75L64.6-21.75ZM108.14-1.75L108.14-25.4 98.49-25.4Q96.44-25.4 95.79-24.2L95.79-24.2Q95.09-23.15 95.09-21.75L95.09-21.75 95.09-7.35Q95.09-6.05 95.89-5.38 96.69-4.7 98.54-4.7L98.54-4.7 103.69-4.7Q105.49-4.7 105.49-2.35L105.49-2.35Q105.49-1.35 105.07-0.68 104.64 0 103.69 0L103.69 0 97.64 0Q94.49 0 92.04-1.6L92.04-1.6Q89.59-3.1 89.59-7.3L89.59-7.3 89.59-22.2Q89.59-24.25 90.24-25.75 90.89-27.25 92.29-28.2L92.29-28.2Q94.94-30.1 97.59-30.1L97.59-30.1 108.14-30.1 108.14-37.6Q108.14-40 110.89-40L110.89-40Q113.64-40 113.64-37.6L113.64-37.6 113.64-2.1Q113.64 0.3 110.89 0.3L110.89 0.3Q109.84 0.3 108.99-0.08 108.14-0.45 108.14-1.75L108.14-1.75ZM126.64-34.65L126.64-2.1Q126.64 0.3 123.69 0.3L123.69 0.3Q120.74 0.3 120.74-2.1L120.74-2.1 120.74-36.7Q120.74-37.85 121.39-38.78 122.04-39.7 123.89-39.7L123.89-39.7 140.89-39.7Q142.69-39.7 142.79-37.2L142.79-37.2Q142.89-34.65 140.89-34.65L140.89-34.65 126.64-34.65ZM139.44-20.65L139.44-20.65Q139.44-19.8 139.12-19.03 138.79-18.25 138.22-17.7 137.64-17.15 136.89-16.82 136.14-16.5 135.24-16.5L135.24-16.5Q133.54-16.5 132.34-17.7 131.14-18.9 131.14-20.65L131.14-20.65Q131.14-22.4 132.34-23.6 133.54-24.8 135.24-24.8L135.24-24.8Q136.14-24.8 136.89-24.48 137.64-24.15 138.22-23.58 138.79-23 139.12-22.25 139.44-21.5 139.44-20.65ZM153.49-37.8L153.49-1.95Q153.49 0.4 150.74 0.4L150.74 0.4Q147.94 0.4 147.94-1.95L147.94-1.95 147.94-37.8Q147.94-40.15 150.74-40.15L150.74-40.15Q153.49-40.15 153.49-37.8L153.49-37.8ZM168.39-30.1L176.39-30.1Q177.69-30.1 179.06-29.55 180.44-29 181.74-28.15L181.74-28.15 181.69-28.15Q182.99-27.2 183.69-25.68 184.39-24.15 184.39-22.15L184.39-22.15 184.39-7.95Q184.39-3.85 181.69-1.9L181.69-1.9Q179.04 0 176.39 0L176.39 0 168.39 0Q167.09 0 165.74-0.45 164.39-0.9 163.09-1.9L163.09-1.9Q160.39-3.8 160.39-7.95L160.39-7.95 160.39-22.15Q160.39-24.15 161.09-25.68 161.79-27.2 163.09-28.15L163.09-28.15 163.04-28.15Q164.29-29 165.69-29.55 167.09-30.1 168.39-30.1L168.39-30.1ZM169.29-4.7L175.49-4.7Q177.34-4.7 178.11-5.75 178.89-6.8 178.89-8L178.89-8 178.89-22.1Q178.89-23.35 178.11-24.38 177.34-25.4 175.49-25.4L175.49-25.4 169.29-25.4Q167.44-25.4 166.66-24.38 165.89-23.35 165.89-22.1L165.89-22.1 165.89-8Q165.89-6.8 166.66-5.75 167.44-4.7 169.29-4.7L169.29-4.7ZM204.73-15.6L201.18-1.55 201.23-1.6Q200.88-0.45 199.88-0.1 198.88 0.25 197.88 0.25L197.88 0.25Q196.93 0.25 195.91-0.1 194.88-0.45 194.58-1.6L194.58-1.6 194.63-1.55 188.08-27.45Q187.48-29.55 190.03-30.25L190.03-30.25Q192.48-30.9 193.18-28.55L193.18-28.55 193.18-28.6 197.23-12.3 198.58-12.3 202.63-28.6Q202.88-29.65 203.76-29.98 204.63-30.3 205.38-30.3L205.38-30.3Q206.23-30.3 207.06-29.93 207.88-29.55 208.18-28.6L208.18-28.6Q208.63-26.8 209.01-25.25 209.38-23.7 209.73-22.25 210.08-20.8 210.41-19.4 210.73-18 211.13-16.5L211.13-16.5 212.23-12.25 213.58-12.25Q214.58-16.3 215.61-20.43 216.63-24.55 217.63-28.6L217.63-28.6 217.58-28.55Q218.28-30.9 220.73-30.25L220.73-30.25Q223.28-29.65 222.68-27.45L222.68-27.45 216.18-1.55 216.23-1.6Q215.93-0.45 214.91-0.1 213.88 0.25 212.88 0.25L212.88 0.25Q211.93 0.25 210.93-0.1 209.93-0.45 209.58-1.6L209.58-1.6 209.63-1.55 206.08-15.6 204.73-15.6Z" opacity="1" transform="matrix(1,0,0,1,0,0)" fill="#000000" class="undefined-text-0" data-fill-palette-color="primary" id="text-0"></path></svg></g></svg></g></svg></g></svg></g><g><svg viewBox="0 0 177.41189267188162 177.41189267188162" height="177.41189267188162" width="177.41189267188162"><g><svg></svg></g><g id="icon-0"><svg viewBox="0 0 177.41189267188162 177.41189267188162" height="177.41189267188162" width="177.41189267188162"><g><path d="M0 88.706c0-48.991 39.715-88.706 88.706-88.706 48.991 0 88.706 39.715 88.706 88.706 0 48.991-39.715 88.706-88.706 88.706-48.991 0-88.706-39.715-88.706-88.706zM88.706 170.762c45.318 0 82.056-36.738 82.056-82.056 0-45.318-36.738-82.056-82.056-82.056-45.318 0-82.056 36.738-82.056 82.056 0 45.318 36.738 82.056 82.056 82.056z" data-fill-palette-color="tertiary" fill="#000000" stroke="transparent"></path></g><g transform="matrix(1,0,0,1,46.07603719680235,39.32540382227176)"><svg viewBox="0 0 85.25981827827691 98.7610850273381" height="98.7610850273381" width="85.25981827827691"><g><svg xmlns="http://www.w3.org/2000/svg" xmlns:xlink="http://www.w3.org/1999/xlink" version="1.1" x="0" y="0" viewBox="9.638 3.247 80.72399999999999 93.507" enable-background="new 0 0 100 100" xml:space="preserve" height="98.7610850273381" width="85.25981827827691" class="icon-g$-0" data-fill-palette-color="accent" id="g$-0"><g fill="#1d1c1b" data-fill-palette-color="accent"><g fill="#1d1c1b" data-fill-palette-color="accent"><polygon points="36.703,11.011 9.638,26.636 9.638,38.757 36.703,23.131 63.767,38.757 63.767,26.636   " fill="#000000" data-fill-palette-color="accent"></polygon></g><g fill="#1d1c1b" data-fill-palette-color="accent"><polygon points="63.298,89.092 36.233,73.467 36.233,61.348 63.298,76.973 90.362,61.348 90.362,73.467   " fill="#000000" data-fill-palette-color="accent"></polygon></g><g fill="#1d1c1b" data-fill-palette-color="accent"><polygon points="9.638,42.012 36.703,26.386 47.198,32.446 20.134,48.072 20.134,79.324 9.638,73.264   " fill="#000000" data-fill-palette-color="accent"></polygon></g><g fill="#1d1c1b" data-fill-palette-color="accent"><polygon points="77.083,18.872 50.018,3.247 39.522,9.307 66.586,24.932 66.586,56.184 77.083,50.124   " fill="#000000" data-fill-palette-color="accent"></polygon></g><g fill="#1d1c1b" data-fill-palette-color="accent"><polygon points="23.01,81.127 23.011,49.876 33.507,43.816 33.507,75.068 60.571,90.693 50.075,96.754   " fill="#000000" data-fill-palette-color="accent"></polygon></g><g fill="#1d1c1b" data-fill-palette-color="accent"><polygon points="90.362,58.092 90.362,26.84 79.866,20.78 79.866,52.031 52.802,67.658 63.298,73.719   " fill="#000000" data-fill-palette-color="accent"></polygon></g></g></svg></g></svg></g></svg></g></svg></g></svg></g><defs></defs></svg><rect width="395.52" height="115.45909002022192" fill="none" stroke="none" visibility="hidden"></rect></g></svg></g></svg>